<?xml version="1.0" encoding="UTF-8" standalone="no"?>
<svg
   xmlns:dc="http://purl.org/dc/elements/1.1/"
   xmlns:cc="http://creativecommons.org/ns#"
   xmlns:rdf="http://www.w3.org/1999/02/22-rdf-syntax-ns#"
   xmlns:svg="http://www.w3.org/2000/svg"
   xmlns="http://www.w3.org/2000/svg"
   xmlns:sodipodi="http://sodipodi.sourceforge.net/DTD/sodipodi-0.dtd"
   xmlns:inkscape="http://www.inkscape.org/namespaces/inkscape"
   version="1.1"
   x="0px"
   y="0px"
   viewBox="0 0 48 48"
   enable-background="new 0 0 100 100"
   xml:space="preserve"
   id="svg2"
   inkscape:version="0.91 r13725"
   sodipodi:docname="controller.svg"
   width="48"
   height="48"><metadata
     id="metadata36"><rdf:RDF><cc:Work
         rdf:about=""><dc:format>image/svg+xml</dc:format><dc:type
           rdf:resource="http://purl.org/dc/dcmitype/StillImage" /><dc:title /></cc:Work></rdf:RDF></metadata><defs
     id="defs34" /><sodipodi:namedview
     pagecolor="#ffffff"
     bordercolor="#666666"
     borderopacity="1"
     objecttolerance="10"
     gridtolerance="10"
     guidetolerance="10"
     inkscape:pageopacity="0"
     inkscape:pageshadow="2"
     inkscape:window-width="1440"
     inkscape:window-height="839"
     id="namedview32"
     showgrid="false"
     inkscape:zoom="5.3400704"
     inkscape:cx="5.717068"
     inkscape:cy="49.121493"
     inkscape:window-x="0"
     inkscape:window-y="69"
     inkscape:window-maximized="0"
     inkscape:current-layer="svg2" /><g
     id="g3344"
     transform="matrix(0.49031879,0,0,0.46579465,-0.85179379,0.31508157)"><path
       id="path4"
       d="m 59.8,38.8 c 2.5,0 4.6,2.1 4.6,4.6 l 0,39.9 c 0,2.5 -2.1,4.6 -4.6,4.6 l -19.6,0 c -2.5,0 -4.6,-2.1 -4.6,-4.6 l 0,-39.9 c 0,-2.5 2.1,-4.6 4.6,-4.6 l 19.6,0 m 0,-6 -19.6,0 c -5.9,0 -10.6,4.7 -10.6,10.6 l 0,39.9 c 0,5.9 4.7,10.6 10.6,10.6 l 19.6,0 c 5.9,0 10.6,-4.7 10.6,-10.6 l 0,-39.9 c 0,-5.8 -4.8,-10.6 -10.6,-10.6 l 0,0 z"
       inkscape:connector-curvature="0" /><path
       id="path6"
       d="m 50,47.9 c 1.5,0 2.7,1.2 2.7,2.7 0,1.5 -1.2,2.7 -2.7,2.7 -1.5,0 -2.7,-1.2 -2.7,-2.7 0,-1.5 1.2,-2.7 2.7,-2.7 m 0,-7.5 c -5.6,0 -10.2,4.6 -10.2,10.2 0,5.6 4.6,10.2 10.2,10.2 5.6,0 10.2,-4.6 10.2,-10.2 C 60.2,45 55.6,40.4 50,40.4 l 0,0 z"
       inkscape:connector-curvature="0" /><circle
       id="circle8"
       r="3.4000001"
       cy="71.300003"
       cx="44.599998" /><circle
       id="circle10"
       r="3.4000001"
       cy="71.300003"
       cx="55.400002" /><circle
       id="circle12"
       r="3.4000001"
       cy="81.5"
       cx="55.400002" /><circle
       id="circle14"
       r="3.4000001"
       cy="81.5"
       cx="44.599998" /><g
       id="g16"><path
         id="path18"
         d="m 68.3,16.9 c -10.6,-8.8 -26.1,-8.8 -36.7,0 -1.1,0.9 -2.8,1.1 -3.7,0.2 0,0 0,0 0,0 C 27,16.2 27.2,14.4 28.6,13.3 41,3 59,3 71.4,13.2 c 1.4,1.1 1.6,2.9 0.7,3.8 0,0 0,0 0,0 -1,1 -2.6,0.8 -3.8,-0.1 z"
         inkscape:connector-curvature="0" /></g><g
       id="g20"><path
         id="path22"
         d="m 61.5,21.9 c -6.8,-5.1 -16.2,-5.1 -23,0 -1.2,0.9 -2.8,1 -3.8,0.1 0,0 0,0 0,0 -1,-0.9 -0.6,-2.8 0.9,-3.9 8.5,-6.4 20.2,-6.4 28.7,0 1.5,1.1 1.9,3 0.9,3.9 0,0 0,0 0,0 -0.9,1 -2.5,0.8 -3.7,-0.1 z"
         inkscape:connector-curvature="0" /></g><g
       id="g24"><path
         id="path26"
         d="m 54.6,27 c -2.9,-1.6 -6.4,-1.6 -9.3,0 -1.2,0.7 -2.9,0.8 -3.8,-0.1 0,0 0,0 0,0 -1,-0.9 -0.4,-3 1.5,-4.1 4.3,-2.4 9.6,-2.4 13.9,0 2,1.1 2.5,3.2 1.5,4.1 0,0 0,0 0,0 -0.9,1 -2.5,0.8 -3.8,0.1 z"
         inkscape:connector-curvature="0" /></g></g></svg>