<?xml version="1.0" encoding="UTF-8" standalone="no"?>
<svg
   xmlns:dc="http://purl.org/dc/elements/1.1/"
   xmlns:cc="http://creativecommons.org/ns#"
   xmlns:rdf="http://www.w3.org/1999/02/22-rdf-syntax-ns#"
   xmlns:svg="http://www.w3.org/2000/svg"
   xmlns="http://www.w3.org/2000/svg"
   xmlns:sodipodi="http://sodipodi.sourceforge.net/DTD/sodipodi-0.dtd"
   xmlns:inkscape="http://www.inkscape.org/namespaces/inkscape"
   version="1.1"
   x="0px"
   y="0px"
   viewBox="0 0 48 48"
   enable-background="new 0 0 100 100"
   xml:space="preserve"
   id="svg2"
   inkscape:version="0.91 r13725"
   sodipodi:docname="HDMI.svg"
   width="48"
   height="48"><metadata
     id="metadata20"><rdf:RDF><cc:Work
         rdf:about=""><dc:format>image/svg+xml</dc:format><dc:type
           rdf:resource="http://purl.org/dc/dcmitype/StillImage" /><dc:title></dc:title></cc:Work></rdf:RDF></metadata><defs
     id="defs18" /><sodipodi:namedview
     pagecolor="#ffffff"
     bordercolor="#666666"
     borderopacity="1"
     objecttolerance="10"
     gridtolerance="10"
     guidetolerance="10"
     inkscape:pageopacity="0"
     inkscape:pageshadow="2"
     inkscape:window-width="1440"
     inkscape:window-height="841"
     id="namedview16"
     showgrid="false"
     inkscape:zoom="5.3400706"
     inkscape:cx="52.539759"
     inkscape:cy="10.070037"
     inkscape:window-x="0"
     inkscape:window-y="46"
     inkscape:window-maximized="0"
     inkscape:current-layer="svg2" /><g
     id="g4"
     transform="matrix(0.75968221,0,0,0.75968221,-13.984228,-36.021627)"><path
       d="m 63.543,80.004 -1.131,0 0,-0.739 c 0,-1.356 -2.033,-1.356 -2.033,0 l 0,0.739 -1.189,0 0,-0.739 c 0,-1.356 -2.033,-1.356 -2.033,0 l 0,0.739 -1.184,0 0,-0.739 c 0,-1.356 -2.037,-1.356 -2.037,0 l 0,0.739 -1.186,0 0,-0.739 c 0,-1.356 -2.033,-1.356 -2.033,0 l 0,0.739 -1.188,0 0,-0.739 c 0,-1.356 -2.033,-1.356 -2.033,0 l 0,0.739 -1.186,0 0,-0.739 c 0,-1.356 -2.033,-1.356 -2.033,0 l 0,0.739 -1.187,0 0,-0.739 c 0,-1.356 -2.033,-1.356 -2.033,0 l 0,0.739 -1.186,0 0,-0.739 c 0,-1.356 -2.033,-1.356 -2.033,0 l 0,0.739 -2.314,0 c -0.83,0 -1.125,0.607 -1.125,1.125 0,0.52 0.295,1.125 1.125,1.125 l 28.02,0 c 0.828,0 1.125,-0.605 1.125,-1.125 -10e-4,-0.518 -0.298,-1.125 -1.126,-1.125 z"
       id="path6"
       inkscape:connector-curvature="0"
       style="clip-rule:evenodd;fill-rule:evenodd" /><path
       d="m 72.057,61.493 -44.131,0 c -4.086,0 -7.412,3.333 -7.412,7.43 l 0,18.667 c 0,4.086 3.334,7.41 7.434,7.41 l 44.129,0 c 4.088,0 7.41,-3.334 7.41,-7.432 l 0,-18.664 c -10e-4,-4.089 -3.333,-7.411 -7.43,-7.411 z m 3.957,26.075 c 0,2.19 -1.775,3.96 -3.938,3.96 l -44.129,0 c -2.189,0 -3.959,-1.778 -3.959,-3.938 l 0,-18.667 c 0,-2.188 1.775,-3.958 3.938,-3.958 l 44.131,0 c 2.188,0 3.957,1.777 3.957,3.939 l 0,18.664 z"
       id="path8"
       inkscape:connector-curvature="0"
       style="clip-rule:evenodd;fill-rule:evenodd" /><path
       d="m 72.057,74.762 -4.691,0 -2.574,-4.461 c -0.668,-1.154 -1.91,-1.87 -3.244,-1.87 l -23.095,0 c -1.33,0 -2.576,0.715 -3.246,1.872 l -2.572,4.459 -4.709,0 c -0.275,0 -0.539,0.24 -0.539,0.559 l 0,12.27 c 0,0.276 0.24,0.537 0.561,0.537 l 44.129,0 c 0.275,0 0.539,-0.24 0.539,-0.559 l 0,-12.27 c -0.001,-0.277 -0.243,-0.537 -0.559,-0.537 z m -2.506,10.303 -39.1,0 0,-3.276 c 0,-0.005 0,-0.008 0,-0.012 l 0,-3.954 0.416,0 2.572,0 1.236,0 3.387,-5.868 c 0.08,-0.137 0.232,-0.226 0.391,-0.226 l 23.094,0 c 0.156,0 0.309,0.088 0.385,0.222 l 3.393,5.872 1.617,0 2.193,0 0.416,0 0,7.242 z"
       id="path10"
       inkscape:connector-curvature="0"
       style="clip-rule:evenodd;fill-rule:evenodd" /></g></svg>