<?xml version="1.0" encoding="UTF-8" standalone="no"?>
<svg
   xmlns:dc="http://purl.org/dc/elements/1.1/"
   xmlns:cc="http://creativecommons.org/ns#"
   xmlns:rdf="http://www.w3.org/1999/02/22-rdf-syntax-ns#"
   xmlns:svg="http://www.w3.org/2000/svg"
   xmlns="http://www.w3.org/2000/svg"
   xmlns:sodipodi="http://sodipodi.sourceforge.net/DTD/sodipodi-0.dtd"
   xmlns:inkscape="http://www.inkscape.org/namespaces/inkscape"
   version="1.1"
   x="0px"
   y="0px"
   viewBox="0 0 48 48"
   enable-background="new 0 0 512 512"
   xml:space="preserve"
   id="svg2"
   inkscape:version="0.91 r13725"
   sodipodi:docname="projector.svg"
   width="48"
   height="48"><metadata
     id="metadata24"><rdf:RDF><cc:Work
         rdf:about=""><dc:format>image/svg+xml</dc:format><dc:type
           rdf:resource="http://purl.org/dc/dcmitype/StillImage" /><dc:title></dc:title></cc:Work></rdf:RDF></metadata><defs
     id="defs22" /><sodipodi:namedview
     pagecolor="#ffffff"
     bordercolor="#666666"
     borderopacity="1"
     objecttolerance="10"
     gridtolerance="10"
     guidetolerance="10"
     inkscape:pageopacity="0"
     inkscape:pageshadow="2"
     inkscape:window-width="1440"
     inkscape:window-height="856"
     id="namedview20"
     showgrid="false"
     inkscape:zoom="2.95"
     inkscape:cx="45.986317"
     inkscape:cy="74.419362"
     inkscape:window-x="0"
     inkscape:window-y="23"
     inkscape:window-maximized="0"
     inkscape:current-layer="svg2" /><g
     id="g4"
     transform="matrix(0.08822459,0,0,0.08822459,1.8235508,1.5607012)"><path
       d="m 378.9,182.3 0,-16.4 c -36.1,0 -65.5,29.4 -65.5,65.5 l 16.4,0 c -0.1,-27.1 22,-49.1 49.1,-49.1 z"
       id="path6"
       inkscape:connector-curvature="0" /><rect
       x="51.200001"
       y="206.8"
       width="114.7"
       height="16.4"
       id="rect8" /><rect
       x="51.200001"
       y="256"
       width="114.7"
       height="16.4"
       id="rect10" /><rect
       x="51.200001"
       y="305.20001"
       width="114.7"
       height="16.4"
       id="rect12" /><path
       d="m 485.4,165.9 -33.4,0 c -18,-20.1 -44.1,-32.8 -73.1,-32.8 -29,0 -55,12.7 -73,32.8 l -279.3,0 C 13,165.9 2,176.9 2,190.5 L 2,338 c 0,13.6 11,24.6 24.6,24.6 l 41,0 0,16.4 16.4,0 0,-16.4 344.1,0 0,16.4 16.4,0 0,-16.4 41,0 c 13.6,0 24.6,-11 24.6,-24.6 l 0,-147.5 C 510,176.9 499,165.9 485.4,165.9 Z M 378.9,149.5 c 45.2,0 81.9,36.8 81.9,81.9 0,45.2 -36.8,81.9 -81.9,81.9 -45.2,0 -81.9,-36.8 -81.9,-81.9 0,-45.2 36.7,-81.9 81.9,-81.9 z m 114.7,188.4 c 0,4.5 -3.7,8.2 -8.2,8.2 l -458.8,0 c -4.5,0 -8.2,-3.7 -8.2,-8.2 l 0,-147.4 c 0,-4.5 3.7,-8.2 8.2,-8.2 l 267.2,0 c -8.6,14.9 -13.2,31.8 -13.2,49.2 0,54.2 44.1,98.3 98.3,98.3 54.2,0 98.3,-44.1 98.3,-98.3 0,-17.3 -4.6,-34.3 -13.2,-49.2 l 21.4,0 c 4.5,0 8.2,3.7 8.2,8.2 l 0,147.4 z"
       id="path14"
       inkscape:connector-curvature="0" /></g></svg>