<?xml version="1.0" encoding="UTF-8" standalone="no"?>
<svg
   xmlns:dc="http://purl.org/dc/elements/1.1/"
   xmlns:cc="http://creativecommons.org/ns#"
   xmlns:rdf="http://www.w3.org/1999/02/22-rdf-syntax-ns#"
   xmlns:svg="http://www.w3.org/2000/svg"
   xmlns="http://www.w3.org/2000/svg"
   xmlns:sodipodi="http://sodipodi.sourceforge.net/DTD/sodipodi-0.dtd"
   xmlns:inkscape="http://www.inkscape.org/namespaces/inkscape"
   width="48"
   height="48"
   viewBox="0 0 48 48"
   version="1.1"
   id="svg2"
   inkscape:version="0.91 r13725"
   sodipodi:docname="white_device_02.svg">
  <metadata
     id="metadata29">
    <rdf:RDF>
      <cc:Work
         rdf:about="">
        <dc:format>image/svg+xml</dc:format>
        <dc:type
           rdf:resource="http://purl.org/dc/dcmitype/StillImage" />
        <dc:title>white_device_02</dc:title>
      </cc:Work>
    </rdf:RDF>
  </metadata>
  <sodipodi:namedview
     pagecolor="#ffffff"
     bordercolor="#666666"
     borderopacity="1"
     objecttolerance="10"
     gridtolerance="10"
     guidetolerance="10"
     inkscape:pageopacity="0"
     inkscape:pageshadow="2"
     inkscape:window-width="1302"
     inkscape:window-height="855"
     id="namedview27"
     showgrid="false"
     inkscape:zoom="2.36"
     inkscape:cx="50"
     inkscape:cy="50"
     inkscape:window-x="142"
     inkscape:window-y="5"
     inkscape:window-maximized="0"
     inkscape:current-layer="svg2" />
  <!-- Generator: Sketch 39.1 (31720) - http://www.bohemiancoding.com/sketch -->
  <title
     id="title4">white_device_02</title>
  <desc
     id="desc6">Created with Sketch.</desc>
  <defs
     id="defs8" />
  <g
     id="Page-1"
     style="fill:none;fill-rule:evenodd;stroke:none;stroke-width:1"
     transform="matrix(0.44837936,0,0,0.44837936,1.9536528,1.619985)">
    <g
       id="white_device_02"
       style="fill:#ffffff">
      <g
         id="controller"
         transform="translate(27,6)">
        <g
           id="g13">
          <path
             d="m 32.8,33.8 c 2.5,0 4.6,2.1 4.6,4.6 l 0,39.9 c 0,2.5 -2.1,4.6 -4.6,4.6 l -19.6,0 c -2.5,0 -4.6,-2.1 -4.6,-4.6 l 0,-39.9 c 0,-2.5 2.1,-4.6 4.6,-4.6 l 19.6,0 0,0 z m 0,-6 -19.6,0 C 7.3,27.8 2.6,32.5 2.6,38.4 l 0,39.9 c 0,5.9 4.7,10.6 10.6,10.6 l 19.6,0 c 5.9,0 10.6,-4.7 10.6,-10.6 l 0,-39.9 c 0,-5.8 -4.8,-10.6 -10.6,-10.6 l 0,0 0,0 z"
             id="path4"
             inkscape:connector-curvature="0" />
          <path
             d="m 23,42.9 c 1.5,0 2.7,1.2 2.7,2.7 0,1.5 -1.2,2.7 -2.7,2.7 -1.5,0 -2.7,-1.2 -2.7,-2.7 0,-1.5 1.2,-2.7 2.7,-2.7 l 0,0 z m 0,-7.5 c -5.6,0 -10.2,4.6 -10.2,10.2 0,5.6 4.6,10.2 10.2,10.2 5.6,0 10.2,-4.6 10.2,-10.2 C 33.2,40 28.6,35.4 23,35.4 l 0,0 0,0 z"
             id="path6"
             inkscape:connector-curvature="0" />
          <circle
             id="circle8"
             cx="17.6"
             cy="66.300003"
             r="3.4000001" />
          <circle
             id="circle10"
             cx="28.4"
             cy="66.300003"
             r="3.4000001" />
          <circle
             id="circle12"
             cx="28.4"
             cy="76.5"
             r="3.4000001" />
          <circle
             id="circle14"
             cx="17.6"
             cy="76.5"
             r="3.4000001" />
          <g
             id="g16">
            <path
               d="M 41.3,11.9 C 30.7,3.1 15.2,3.1 4.6,11.9 3.5,12.8 1.8,13 0.9,12.1 l 0,0 C 0,11.2 0.2,9.4 1.6,8.3 14,-2 32,-2 44.4,8.2 45.8,9.3 46,11.1 45.1,12 l 0,0 c -1,1 -2.6,0.8 -3.8,-0.1 l 0,0 z"
               id="path18"
               inkscape:connector-curvature="0" />
          </g>
          <g
             id="g20"
             transform="translate(7,8)">
            <path
               d="M 27.5,8.9 C 20.7,3.8 11.3,3.8 4.5,8.9 3.3,9.8 1.7,9.9 0.7,9 l 0,0 c -1,-0.9 -0.6,-2.8 0.9,-3.9 8.5,-6.4 20.2,-6.4 28.7,0 1.5,1.1 1.9,3 0.9,3.9 l 0,0 c -0.9,1 -2.5,0.8 -3.7,-0.1 l 0,0 z"
               id="path22"
               inkscape:connector-curvature="0" />
          </g>
          <g
             id="g24"
             transform="translate(14,16)">
            <path
               d="M 13.6,6 C 10.7,4.4 7.2,4.4 4.3,6 3.1,6.7 1.4,6.8 0.5,5.9 l 0,0 C -0.5,5 0.1,2.9 2,1.8 c 4.3,-2.4 9.6,-2.4 13.9,0 2,1.1 2.5,3.2 1.5,4.1 l 0,0 c -0.9,1 -2.5,0.8 -3.8,0.1 l 0,0 z"
               id="path26"
               inkscape:connector-curvature="0" />
          </g>
        </g>
      </g>
    </g>
  </g>
</svg>
