<?xml version="1.0" encoding="UTF-8" standalone="no"?>
<svg
   xmlns:dc="http://purl.org/dc/elements/1.1/"
   xmlns:cc="http://creativecommons.org/ns#"
   xmlns:rdf="http://www.w3.org/1999/02/22-rdf-syntax-ns#"
   xmlns:svg="http://www.w3.org/2000/svg"
   xmlns="http://www.w3.org/2000/svg"
   xmlns:sodipodi="http://sodipodi.sourceforge.net/DTD/sodipodi-0.dtd"
   xmlns:inkscape="http://www.inkscape.org/namespaces/inkscape"
   width="48"
   height="48"
   viewBox="0 0 48 48"
   version="1.1"
   id="svg2"
   inkscape:version="0.91 r13725"
   sodipodi:docname="white_device_04.svg">
  <metadata
     id="metadata21">
    <rdf:RDF>
      <cc:Work
         rdf:about="">
        <dc:format>image/svg+xml</dc:format>
        <dc:type
           rdf:resource="http://purl.org/dc/dcmitype/StillImage" />
        <dc:title>white_device_04</dc:title>
      </cc:Work>
    </rdf:RDF>
  </metadata>
  <sodipodi:namedview
     pagecolor="#ffffff"
     bordercolor="#666666"
     borderopacity="1"
     objecttolerance="10"
     gridtolerance="10"
     guidetolerance="10"
     inkscape:pageopacity="0"
     inkscape:pageshadow="2"
     inkscape:window-width="1364"
     inkscape:window-height="782"
     id="namedview19"
     showgrid="false"
     inkscape:zoom="6.675088"
     inkscape:cx="41.754485"
     inkscape:cy="29.964292"
     inkscape:window-x="0"
     inkscape:window-y="23"
     inkscape:window-maximized="0"
     inkscape:current-layer="svg2" />
  <!-- Generator: Sketch 39.1 (31720) - http://www.bohemiancoding.com/sketch -->
  <title
     id="title4">white_device_04</title>
  <desc
     id="desc6">Created with Sketch.</desc>
  <defs
     id="defs8" />
  <g
     id="Page-1"
     style="fill:none;fill-rule:evenodd;stroke:none;stroke-width:1"
     transform="matrix(0.59003501,0,0,0.59003501,-5.231625,-5.9570969)">
    <g
       id="white_device_04"
       style="fill:#ffffff">
      <g
         id="HDMI"
         transform="translate(12,29)">
        <g
           id="g13">
          <g
             id="g4">
            <path
               d="m 55.069088,24.034471 -1.430382,0 0,-0.934618 c 0,-1.714941 -2.571147,-1.714941 -2.571147,0 l 0,0.934618 -1.503736,0 0,-0.934618 c 0,-1.714941 -2.571146,-1.714941 -2.571146,0 l 0,0.934618 -1.497412,0 0,-0.934618 c 0,-1.714941 -2.576206,-1.714941 -2.576206,0 l 0,0.934618 -1.499941,0 0,-0.934618 c 0,-1.714941 -2.571147,-1.714941 -2.571147,0 l 0,0.934618 -1.502471,0 0,-0.934618 c 0,-1.714941 -2.571147,-1.714941 -2.571147,0 l 0,0.934618 -1.499941,0 0,-0.934618 c 0,-1.714941 -2.571147,-1.714941 -2.571147,0 l 0,0.934618 -1.501206,0 0,-0.934618 c 0,-1.714941 -2.571147,-1.714941 -2.571147,0 l 0,0.934618 -1.499941,0 0,-0.934618 c 0,-1.714941 -2.571148,-1.714941 -2.571148,0 l 0,0.934618 -2.926529,0 c -1.049706,0 -1.422794,0.767676 -1.422794,1.422794 0,0.657647 0.373088,1.422794 1.422794,1.422794 l 35.437059,0 c 1.047176,0 1.422794,-0.765147 1.422794,-1.422794 -0.0013,-0.655118 -0.376882,-1.422794 -1.424059,-1.422794 l 0,0 z"
               id="path6"
               inkscape:connector-curvature="0" />
            <path
               d="m 65.836794,0.6235 -55.812735,0 c -5.1675884,0 -9.37400018,4.2152647 -9.37400018,9.396765 l 0,23.608264 C 0.65005882,38.796118 4.8665882,43 10.051882,43 l 55.810206,0 c 5.170118,0 9.371471,-4.216529 9.371471,-9.399294 l 0,-23.6044707 C 75.232294,4.8248529 71.018294,0.6235 65.836794,0.6235 l 0,0 z m 5.004441,32.977206 c 0,2.769706 -2.244853,5.008235 -4.980412,5.008235 l -55.810205,0 c -2.7684415,0 -5.0069709,-2.248647 -5.0069709,-4.980412 l 0,-23.608264 c 0,-2.7671768 2.2448529,-5.0057062 4.9804119,-5.0057062 l 55.812735,0 c 2.767177,0 5.004441,2.2473824 5.004441,4.9816765 l 0,23.6044707 0,0 z"
               id="path8"
               inkscape:connector-curvature="0" />
            <path
               d="m 65.836794,17.404882 -5.932735,0 -3.255353,-5.641853 C 55.803882,10.303559 54.233118,9.3980294 52.546,9.3980294 l -29.208382,0 c -1.682059,0 -3.257883,0.9042646 -4.105236,2.3675296 l -3.252823,5.639323 -5.9555,0 c -0.3477943,0 -0.6816767,0.30353 -0.6816767,0.706971 l 0,15.517941 c 0,0.349059 0.3035295,0.679147 0.7094997,0.679147 l 55.810206,0 c 0.347794,0 0.681677,-0.303529 0.681677,-0.70697 l 0,-15.517942 c -0.0013,-0.350323 -0.307324,-0.679147 -0.706971,-0.679147 l 0,0 z m -3.169353,13.030265 -49.45,0 0,-4.143176 0,-0.01518 0,-5.000647 0.526118,0 3.252823,0 1.563177,0 4.283559,-7.421294 c 0.101176,-0.173265 0.293411,-0.285824 0.4945,-0.285824 l 29.207117,0 c 0.197294,0 0.390794,0.111295 0.486912,0.280765 l 4.291147,7.426353 2.045029,0 2.7735,0 0.526118,0 0,9.159 0,0 z"
               id="path10"
               inkscape:connector-curvature="0" />
          </g>
        </g>
      </g>
    </g>
  </g>
</svg>
