<?xml version="1.0" encoding="UTF-8" standalone="no"?>
<svg
   xmlns:dc="http://purl.org/dc/elements/1.1/"
   xmlns:cc="http://creativecommons.org/ns#"
   xmlns:rdf="http://www.w3.org/1999/02/22-rdf-syntax-ns#"
   xmlns:svg="http://www.w3.org/2000/svg"
   xmlns="http://www.w3.org/2000/svg"
   xmlns:sodipodi="http://sodipodi.sourceforge.net/DTD/sodipodi-0.dtd"
   xmlns:inkscape="http://www.inkscape.org/namespaces/inkscape"
   version="1.1"
   x="0px"
   y="0px"
   viewBox="0 0 48 48"
   enable-background="new 0 0 48 48"
   xml:space="preserve"
   id="svg2"
   inkscape:version="0.91 r13725"
   sodipodi:docname="accessCard.svg"
   width="48"
   height="48"><metadata
     id="metadata20"><rdf:RDF><cc:Work
         rdf:about=""><dc:format>image/svg+xml</dc:format><dc:type
           rdf:resource="http://purl.org/dc/dcmitype/StillImage" /><dc:title></dc:title></cc:Work></rdf:RDF></metadata><defs
     id="defs18" /><sodipodi:namedview
     pagecolor="#ffffff"
     bordercolor="#666666"
     borderopacity="1"
     objecttolerance="10"
     gridtolerance="10"
     guidetolerance="10"
     inkscape:pageopacity="0"
     inkscape:pageshadow="2"
     inkscape:window-width="1440"
     inkscape:window-height="837"
     id="namedview16"
     showgrid="false"
     inkscape:zoom="5.5625733"
     inkscape:cx="-8.7923415"
     inkscape:cy="26.466074"
     inkscape:window-x="-2"
     inkscape:window-y="0"
     inkscape:window-maximized="0"
     inkscape:current-layer="svg2" /><g
     id="g4"
     transform="translate(0.17977291,-0.13498781)"><path
       d="M 41.7,40 6.3,40 C 3.1,40 0.5,37.4 0.5,34.2 l 0,-20.4 C 0.5,10.6 3.1,8 6.3,8 l 35.3,0 c 3.2,0 5.8,2.6 5.8,5.8 l 0,20.3 C 47.5,37.4 44.9,40 41.7,40 Z M 6.3,10 c -2.1,0 -3.8,1.7 -3.8,3.8 l 0,20.3 c 0,2.1 1.7,3.8 3.8,3.8 l 35.3,0 c 2.1,0 3.8,-1.7 3.8,-3.8 l 0,-20.3 C 45.4,11.7 43.7,10 41.6,10 L 6.3,10 Z"
       id="path6"
       inkscape:connector-curvature="0"
       style="fill:#000000" /><rect
       x="1.5"
       y="15.8"
       width="45"
       height="2"
       id="rect8"
       style="fill:#000000" /><path
       d="m 18.5,34 -12,0 0,-8 12,0 0,8 z m -10,-2 8,0 0,-4 -8,0 0,4 z"
       id="path10"
       inkscape:connector-curvature="0"
       style="fill:#000000" /></g></svg>