<?xml version="1.0" encoding="utf-8"?>
<!-- Generator: Adobe Illustrator 18.0.0, SVG Export Plug-In . SVG Version: 6.00 Build 0)  -->
<!DOCTYPE svg PUBLIC "-//W3C//DTD SVG 1.0//EN" "http://www.w3.org/TR/2001/REC-SVG-20010904/DTD/svg10.dtd" [
	<!ENTITY ns_flows "http://ns.adobe.com/Flows/1.0/">
	<!ENTITY ns_extend "http://ns.adobe.com/Extensibility/1.0/">
	<!ENTITY ns_ai "http://ns.adobe.com/AdobeIllustrator/10.0/">
	<!ENTITY ns_graphs "http://ns.adobe.com/Graphs/1.0/">
]>
<svg version="1.0" id="图层_1" xmlns:x="&ns_extend;" xmlns:i="&ns_ai;" xmlns:graph="&ns_graphs;"
	 xmlns="http://www.w3.org/2000/svg" xmlns:xlink="http://www.w3.org/1999/xlink" xmlns:a="http://ns.adobe.com/AdobeSVGViewerExtensions/3.0/"
	 x="0px" y="0px" viewBox="0 0 128 128" enable-background="new 0 0 128 128" xml:space="preserve">
<g id="图层_2">
	<path fill="#FFFFFF" d="M104,0H24c-1.7,0-3,1.3-3,3v122c0,1.7,1.3,3,3,3h80c1.7,0,3-1.3,3-3V3C107,1.3,105.7,0,104,0z M102,123H26
		V5h76V123z"/>
	<path fill="#FFFFFF" d="M93,11H35c-1.7,0-3,1.3-3,3v36c0,1.7,1.3,3,3,3h58c1.7,0,3-1.3,3-3V14C96,12.3,94.7,11,93,11z M91,48H37V16
		h54V48z"/>
	<path fill="#FFFFFF" d="M43,61c-4.4,0-8,3.6-8,8s3.6,8,8,8s8-3.6,8-8S47.4,61,43,61z M43,72c-1.7,0-3-1.3-3-3s1.3-3,3-3s3,1.3,3,3
		S44.7,72,43,72z"/>
</g>
</svg>
