<?xml version="1.0" encoding="UTF-8" standalone="no"?>
<svg
   xmlns:dc="http://purl.org/dc/elements/1.1/"
   xmlns:cc="http://creativecommons.org/ns#"
   xmlns:rdf="http://www.w3.org/1999/02/22-rdf-syntax-ns#"
   xmlns:svg="http://www.w3.org/2000/svg"
   xmlns="http://www.w3.org/2000/svg"
   xmlns:sodipodi="http://sodipodi.sourceforge.net/DTD/sodipodi-0.dtd"
   xmlns:inkscape="http://www.inkscape.org/namespaces/inkscape"
   width="48"
   height="48"
   viewBox="0 0 48 48"
   version="1.1"
   id="svg2"
   inkscape:version="0.91 r13725"
   sodipodi:docname="white_device_01.svg">
  <metadata
     id="metadata21">
    <rdf:RDF>
      <cc:Work
         rdf:about="">
        <dc:format>image/svg+xml</dc:format>
        <dc:type
           rdf:resource="http://purl.org/dc/dcmitype/StillImage" />
        <dc:title>white_device_01</dc:title>
      </cc:Work>
    </rdf:RDF>
  </metadata>
  <sodipodi:namedview
     pagecolor="#ffffff"
     bordercolor="#666666"
     borderopacity="1"
     objecttolerance="10"
     gridtolerance="10"
     guidetolerance="10"
     inkscape:pageopacity="0"
     inkscape:pageshadow="2"
     inkscape:window-width="1444"
     inkscape:window-height="839"
     id="namedview19"
     showgrid="false"
     inkscape:zoom="2.36"
     inkscape:cx="50"
     inkscape:cy="50"
     inkscape:window-x="0"
     inkscape:window-y="23"
     inkscape:window-maximized="0"
     inkscape:current-layer="svg2" />
  <!-- Generator: Sketch 39.1 (31720) - http://www.bohemiancoding.com/sketch -->
  <title
     id="title4">white_device_01</title>
  <desc
     id="desc6">Created with Sketch.</desc>
  <defs
     id="defs8" />
  <g
     id="Page-1"
     style="fill:none;fill-rule:evenodd;stroke:none;stroke-width:1"
     transform="matrix(0.92772647,0,0,0.8940678,-22.237293,-20.008475)">
    <g
       id="white_device_01"
       style="fill:#ffffff">
      <g
         id="accessCard"
         transform="translate(26,34)">
        <g
           id="g13">
          <g
             id="g4">
            <path
               d="M 41.7,32 6.3,32 C 3.1,32 0.5,29.4 0.5,26.2 L 0.5,5.8 C 0.5,2.6 3.1,0 6.3,0 l 35.3,0 c 3.2,0 5.8,2.6 5.8,5.8 l 0,20.3 c 0.1,3.3 -2.5,5.9 -5.7,5.9 l 0,0 z M 6.3,2 C 4.2,2 2.5,3.7 2.5,5.8 l 0,20.3 c 0,2.1 1.7,3.8 3.8,3.8 l 35.3,0 c 2.1,0 3.8,-1.7 3.8,-3.8 l 0,-20.3 C 45.4,3.7 43.7,2 41.6,2 l -35.3,0 0,0 z"
               id="path6"
               inkscape:connector-curvature="0" />
            <rect
               id="rect8"
               x="1.5"
               y="7.8000002"
               width="45"
               height="2" />
            <path
               d="m 18.5,26 -12,0 0,-8 12,0 0,8 0,0 z m -10,-2 8,0 0,-4 -8,0 0,4 0,0 z"
               id="path10"
               inkscape:connector-curvature="0" />
          </g>
        </g>
      </g>
    </g>
  </g>
</svg>
